<svg width="20" height="19" viewBox="0 0 20 19" fill="none" xmlns="http://www.w3.org/2000/svg">
<path d="M19.1667 8.25562H2.54208L8.90792 1.58159C9.24125 1.23211 9.25417 0.651483 8.93667 0.284576C8.61958 -0.0818717 8.09208 -0.096548 7.75833 0.25293L0.488333 7.87541C0.17375 8.22214 0 8.68261 0 9.17289C0 9.66271 0.17375 10.1236 0.502917 10.4855L7.75875 18.0924C7.92 18.2616 8.12667 18.3455 8.33333 18.3455C8.55333 18.3455 8.77333 18.2502 8.93708 18.0607C9.25458 17.6938 9.24167 17.1137 8.90833 16.7642L2.51583 10.0902H19.1667C19.6267 10.0902 20 9.67922 20 9.17289C20 8.66656 19.6267 8.25562 19.1667 8.25562Z" fill="#606060"/>
</svg>
