<svg width="40" height="40" viewBox="0 0 40 40" fill="none" xmlns="http://www.w3.org/2000/svg">
<path d="M34.1422 6.11198C30.3647 2.41875 25.3421 0.384766 20 0.384766C14.6576 0.384766 9.63531 2.41875 5.85785 6.11198C2.08038 9.80521 0 14.7155 0 19.9388C0 25.1617 2.08038 30.0723 5.85785 33.7655C9.63531 37.4587 14.6576 39.4927 20 39.4927C25.3421 39.4927 30.3647 37.4587 34.1422 33.7655C37.9196 30.0723 40 25.1617 40 19.9388C40 14.7155 37.9196 9.80521 34.1422 6.11198ZM10.0266 34.1755C10.863 29.4666 15.0366 25.9933 20 25.9933C24.9637 25.9933 29.137 29.4666 29.9734 34.1755C27.1338 36.083 23.6981 37.2013 20 37.2013C16.3019 37.2013 12.8662 36.083 10.0266 34.1755ZM13.6407 17.4844C13.6407 14.0558 16.4935 11.2669 20 11.2669C23.5065 11.2669 26.3593 14.0561 26.3593 17.4844C26.3593 20.9126 23.5065 23.7018 20 23.7018C16.4935 23.7018 13.6407 20.9126 13.6407 17.4844ZM32.0035 32.5861C31.3727 30.3939 30.1199 28.405 28.364 26.8514C27.2867 25.8981 26.0605 25.1459 24.7421 24.6157C27.1249 23.0961 28.7033 20.4672 28.7033 17.4844C28.7033 12.7925 24.7989 8.97544 20 8.97544C15.2011 8.97544 11.297 12.7925 11.297 17.4844C11.297 20.4672 12.8754 23.0961 15.2579 24.6157C13.9398 25.1459 12.7133 25.8978 11.636 26.8511C9.88037 28.4047 8.62732 30.3936 7.99652 32.5858C4.52209 29.4311 2.34375 24.9293 2.34375 19.9388C2.34375 10.4201 10.2643 2.67625 20 2.67625C29.7357 2.67625 37.6562 10.4201 37.6562 19.9388C37.6562 24.9296 35.4779 29.4314 32.0035 32.5861Z" fill="white"/>
</svg>
